<svg width="70" height="70" viewBox="0 0 70 70" fill="none" xmlns="http://www.w3.org/2000/svg">
<path d="M35 4.375C51.9121 4.375 65.625 18.4434 65.625 35.7793C65.625 49.6563 56.8477 61.4141 44.6797 65.5703C44.509 65.6074 44.3348 65.6257 44.1602 65.625C43.0254 65.625 42.5879 64.791 42.5879 64.0664C42.5879 63.3145 42.6152 61.3457 42.6289 58.7207C43.6419 58.9582 44.6783 59.082 45.7187 59.0899C51.6113 59.0899 52.9512 54.5098 52.9512 54.5098C54.3457 50.8867 56.3555 49.916 56.3555 49.916C59.0215 48.043 56.3691 47.9883 56.1641 47.9883H56.1504C53.0742 48.2617 51.4609 51.2422 51.4609 51.2422C49.9297 53.9219 47.8789 54.6738 46.0469 54.6738C44.8355 54.6496 43.6429 54.3701 42.5469 53.8535C42.2734 51.8301 41.4805 50.4492 40.6055 49.6563C47.4004 48.8633 54.5508 46.1699 54.5508 34.1387C54.5508 30.707 53.3613 27.9043 51.4062 25.7168C51.7207 24.9238 52.7734 21.7246 51.1055 17.4043C50.8817 17.3508 50.6518 17.3278 50.4219 17.3359C49.3145 17.3359 46.8125 17.7598 42.6836 20.6309C37.6666 19.2272 32.3607 19.2272 27.3438 20.6309C23.2148 17.7598 20.7129 17.3359 19.6055 17.3359C19.3756 17.3278 19.1456 17.3508 18.9219 17.4043C17.2539 21.7246 18.3066 24.9238 18.6211 25.7168C16.666 27.918 15.4766 30.7207 15.4766 34.1387C15.4766 46.1973 22.6406 48.8496 29.4629 49.6289C28.3691 50.5996 27.3848 52.5137 27.3848 55.4395C27.3848 59.6367 27.4258 63.0274 27.4258 64.0527C27.4258 64.791 27.002 65.625 25.8672 65.625C25.6835 65.6258 25.5002 65.6075 25.3203 65.5703C13.1387 61.4141 4.375 49.6426 4.375 35.7793C4.375 18.4434 18.0879 4.375 35 4.375Z" fill="#A8A29E"/>
</svg>
