<svg width="70" height="70" viewBox="0 0 70 70" fill="none" xmlns="http://www.w3.org/2000/svg">
<path d="M63.4375 10.9375H6.5625C5.98234 10.9375 5.42594 11.168 5.0157 11.5782C4.60547 11.9884 4.375 12.5448 4.375 13.125V56.875C4.375 57.4552 4.60547 58.0116 5.0157 58.4218C5.42594 58.832 5.98234 59.0625 6.5625 59.0625H63.4375C64.0177 59.0625 64.5741 58.832 64.9843 58.4218C65.3945 58.0116 65.625 57.4552 65.625 56.875V13.125C65.625 12.5448 65.3945 11.9884 64.9843 11.5782C64.5741 11.168 64.0177 10.9375 63.4375 10.9375ZM36.3426 38.9143C35.9587 39.2127 35.4863 39.3747 35 39.3747C34.5137 39.3747 34.0413 39.2127 33.6574 38.9143L12.2432 22.2592L14.9283 18.8057L35 34.4162L55.0717 18.8057L57.7568 22.2592L36.3426 38.9143Z" fill="#A8A29E"/>
</svg>
