<svg width="215" height="215" viewBox="0 0 215 215" fill="none" xmlns="http://www.w3.org/2000/svg">
    <path d="M147.317 116.468V158.263C147.317 193.093 133.385 207.024 98.5561 207.024H56.761C21.9317 207.024 8 193.093 8 158.263V116.468C8 81.639 21.9317 67.7073 56.761 67.7073H98.5561C133.385 67.7073 147.317 81.639 147.317 116.468Z" stroke="#f8fafc" stroke-width="14.9268" stroke-linecap="round" stroke-linejoin="round"/>
    <path opacity="0.4" d="M207.024 56.761V98.5561C207.024 133.385 193.093 147.317 158.263 147.317H147.317V116.468C147.317 81.639 133.385 67.7073 98.5561 67.7073H67.7073V56.761C67.7073 21.9317 81.639 8 116.468 8H158.263C193.093 8 207.024 21.9317 207.024 56.761Z" stroke="#f8fafc" stroke-width="14.9268" stroke-linecap="round" stroke-linejoin="round"/>
</svg>
