<svg width="215" height="215" viewBox="0 0 215 215" fill="none" xmlns="http://www.w3.org/2000/svg">
<path opacity="0.4" d="M207.024 98.5561V56.761C207.024 21.9317 193.093 8 158.263 8H116.468C81.639 8 67.7073 21.9317 67.7073 56.761V67.7073H98.5561C133.385 67.7073 147.317 81.639 147.317 116.468V147.317H158.263C193.093 147.317 207.024 133.385 207.024 98.5561Z" stroke="#4ade80" stroke-width="14.9268" stroke-linecap="round" stroke-linejoin="round"/>
<path d="M147.317 158.263V116.468C147.317 81.639 133.385 67.7073 98.5561 67.7073H56.761C21.9317 67.7073 8 81.639 8 116.468V158.263C8 193.093 21.9317 207.024 56.761 207.024H98.5561C133.385 207.024 147.317 193.093 147.317 158.263Z" stroke="#4ade80" stroke-width="14.9268" stroke-linecap="round" stroke-linejoin="round"/>
<path d="M48.6018 137.364L68.0067 156.769L106.717 117.959" stroke="#4ade80" stroke-width="14.9268" stroke-linecap="round" stroke-linejoin="round"/>
</svg>
